<?xml version="1.0" standalone="no"?>
<svg id="lines21" width="100%" height="100%" viewBox="0 0 1642 1275" fill="none" xmlns="http://www.w3.org/2000/svg" style="max-width: 100%; max-height: 100%;">
<g clip-path="url(#clip0_324_804)">
<mask id="mask0_324_804" style="mask-type:luminance" maskUnits="userSpaceOnUse" x="0" y="0" width="1642" height="1275">
<path d="M1642 0H0V1275H1642V0Z" fill="white" stroke-dasharray="0,0,0,5834"><animate attributeType="XML" attributeName="stroke-dasharray" repeatCount="indefinite" dur="25s" values="0,0,0,5834; 
          0,2917,2917,0; 
          5834,0,0,0" keyTimes="0; 0.5; 1" fill="freeze"></animate></path>
</mask>
<g mask="url(#mask0_324_804)">
<path opacity="0.74" d="M1555.1 508.757C1593.54 543.915 1626.23 581.304 1649.51 621.037C1662.24 661.167 1661.55 704.374 1647.73 751.071C1623.04 798.931 1588.94 851.015 1548.8 907.354C1506.43 964.569 1464.8 1025.23 1426.97 1087.85C1395.7 1148.04 1372.07 1206.31 1356.65 1259.24C1386.94 1310.59 1416.37 1240.89 1401.61 1281.92C1385.25 1341.43 1363.77 1419.71 1338.11 1507.16C1309.1 1589.65 1277.3 1654.46 1243.74 1689.12C1208.5 1689.01 1172.71 1654.5 1137.09 1595.04C1101.02 1530.84 1065.74 1478.31 1031.64 1455.65C997.625 1474.84 964.946 1533.2 933.711 1618.33C902.65 1708.39 872.962 1778.26 844.695 1806.82C816.497 1786.78 789.603 1722.62 764.142 1634.25C738.669 1552.97 715.217 1503.91 693.809 1500.87C672.469 1544.42 653.278 1616.97 636.315 1694.06C619.503 1753.97 605.011 1775.45 592.817 1752.26C580.705 1690.57 570.739 1604.6 562.679 1514.86C539.1 1422.63 491.226 1561.11 462.924 1577.53C438.248 1553.71 409.253 1504.64 375.847 1437.48C338.561 1358.89 298.054 1278.51 255.538 1203.84C212.779 1138.65 171.313 1087.61 133.346 1050.93C84.7443 1022.01 176.163 995.361 201.994 965.589C205.977 942.448 199.176 915.227 181.405 884.818C153.092 853.915 117.815 820.702 79.3749 785.559C41.3849 750.401 9.94208 714.143 -11.4316 676.563C-21.8356 638.52 -18.6832 598.262 -2.52881 555.103C24.1566 510.414 59.687 461.646 100.575 408.287C142.999 352.952 183.969 293.059 220.527 229.452C250.064 166.371 271.657 102.813 284.983 41.9315C249.048 -60.6423 222.294 20.9259 239.245 5.84902C257.131 -38.0429 280.029 -105.219 306.957 -188.843C337.153 -276.022 369.912 -353.637 404.23 -407.155C440.084 -427.428 476.295 -410.741 512.184 -361.893C548.419 -297.92 583.73 -234.823 617.782 -192.955C651.685 -189.593 684.213 -227.843 715.286 -301.299C746.163 -391.967 775.689 -474.874 803.83 -525.396C831.901 -529.316 858.724 -483.831 884.186 -402.565C909.659 -314.192 933.18 -246.442 954.716 -219.444C976.17 -241.039 995.535 -300.549 1012.69 -377.049C1036.98 -469.407 1073.73 -409.371 1086.61 -281.679C1108.66 -142.689 1151.87 -252.179 1177.94 -289.76C1201.14 -283.719 1228.69 -250.952 1260.78 -196.27C1297.02 -125.333 1336.79 -46.7288 1378.96 31.4127C1421.82 104.709 1463.86 166.786 1502.9 215.73C1560.65 286.269 1471.76 315.626 1443.2 340.584C1436.88 360.172 1441.22 384.444 1456.66 412.797C1483.09 441.532 1517.11 473.615 1555.1 508.757Z" stroke="url(#paint0_linear_324_804)" stroke-width="1.25" stroke-linecap="round" stroke-dasharray="0,0,0,8160.97265625"><animate attributeType="XML" attributeName="stroke-dasharray" repeatCount="indefinite" dur="25s" values="0,0,0,8160.97265625; 
          0,4080.486328125,4080.486328125,0; 
          8160.97265625,0,0,0" keyTimes="0; 0.5; 1" fill="freeze"></animate></path>
<path opacity="0.17" d="M1472.77 759.486C1507.06 790.723 1537.05 824.112 1560.06 859.159C1575.42 893.887 1580.42 929.603 1574.84 965.366C1560.05 999.696 1536.25 1032.57 1505.44 1062.55C1470.18 1089.23 1432.35 1110.99 1394.42 1126.35C1358.65 1136.82 1326.56 1139.75 1299.41 1134.89C1261.35 1098.16 1268.09 1092.24 1279.8 1145.4C1287.61 1201.1 1292.98 1269.15 1295.29 1344.46C1295.74 1418.57 1292.39 1484.58 1285.27 1533.78C1275.69 1560.19 1262.56 1560.22 1246.36 1534.08C1228.05 1490.11 1207.33 1435.41 1184.81 1382.56C1160.92 1347.17 1135.91 1337.01 1110.32 1358.27C1084.04 1410.39 1057.68 1484.18 1031.65 1565.43C1005.35 1637.07 979.68 1682.87 954.9 1691.37C930.051 1661.88 906.229 1599.9 883.585 1520.77C860.941 1447.28 840.03 1397.35 820.781 1382.29C801.462 1405.67 783.691 1458.41 767.294 1525.57C742.837 1616.08 697.169 1615.98 674.225 1521.3C657.516 1440.96 639.964 1364.52 621.108 1303.4C600.138 1265.2 577.171 1252.56 551.871 1262.76C524.077 1292.47 493.732 1331.29 460.892 1370.13C426.193 1404.33 389.727 1424.4 352.256 1427.08C314.971 1412.8 278.528 1380.81 244.245 1334.69C213.356 1277.36 186.994 1213.75 166.533 1148.42C152.214 1082.73 145.217 1021.39 145.979 966.163C152.93 916.327 166.567 873.646 185.747 837.308C207.098 806.374 230.18 779.886 252.662 756.139C277.189 725.587 280.745 664.53 255.076 629.26C227.594 605.067 195.308 577.479 161.013 546.226C127.099 514.973 98.1967 480.818 76.8691 444.146C63.6361 407.761 60.9803 369.399 68.9132 329.986C85.9221 291.8 111.568 253.9 143.738 217.754C179.812 184.795 217.836 155.805 255.376 132.568C290.214 114.766 320.929 104.63 346.379 103.147C372.441 158.164 343.85 73.7109 339.762 -26.9026C340.213 -102.638 344.601 -176.237 352.811 -238.505C363.584 -281.249 377.891 -298.892 395.212 -288.58C414.634 -255.319 436.354 -204.351 459.772 -146.912C484.517 -99.3066 510.244 -71.2725 536.421 -72.4519C563.268 -106.941 590.069 -169.209 616.431 -248.083C643.047 -327.309 668.948 -389.258 693.866 -418.822C718.854 -409.976 742.745 -363.216 765.377 -289.728C788.021 -210.598 808.875 -145.43 827.986 -109.762C847.154 -112.057 864.706 -148.649 880.791 -208.223C904.705 -306.861 948.642 -359.184 970.362 -285.648C986.181 -209.897 1002.72 -129.747 1020.46 -57.8851C1040.33 -3.857 1062.1 26.3606 1086.21 32.4806C1112.91 15.8418 1142.22 -15.3638 1174.16 -52.5938C1208.19 -91.0032 1244.2 -120.057 1281.52 -134.799C1318.98 -134.608 1355.95 -116.471 1391.14 -82.5244C1423.26 -35.3175 1451.16 21.4359 1473.42 83.2734C1489.66 148.522 1498.64 212.24 1499.81 271.91C1494.55 328.073 1482.29 377.942 1464.05 421.611C1443.1 460.418 1419.82 494.142 1396.52 524.169C1369.71 563.375 1359.48 635.779 1381.85 674.045C1407.65 699.847 1438.85 728.232 1472.77 759.486Z" stroke="url(#paint1_linear_324_804)" stroke-width="1.25" stroke-linecap="round" stroke-dasharray="0,0,0,8056.15283203125"><animate attributeType="XML" attributeName="stroke-dasharray" repeatCount="indefinite" dur="25s" values="0,0,0,8056.15283203125; 
          0,4028.076416015625,4028.076416015625,0; 
          8056.15283203125,0,0,0" keyTimes="0; 0.5; 1" fill="freeze"></animate></path>
<path opacity="0.63" d="M1391.13 694.492C1421.22 721.825 1448.11 745.508 1469.95 765.526C1486.5 785.464 1495.43 801.592 1496.3 813.928C1476.65 838.328 1429.74 848.799 1366.92 850.76C1300.48 863.031 1240.04 884.579 1192.81 930.654C1163.08 1009.23 1148.28 1119.18 1143.65 1246.07C1151.99 1389.24 1151.06 1309.38 1128.57 1215.6C1107.38 1253.66 1078.99 1370.9 1045.43 1507.37C1028.21 1555.82 1010.13 1578.63 991.355 1570.96C972.51 1535.64 953.134 1477.6 933.319 1407.93C913.516 1342.62 893.735 1293.77 874.001 1270.01C854.187 1275.81 834.256 1307.56 814.107 1357.49C772.953 1475.72 729.27 1538.13 681.8 1503.07C631.085 1389.08 574.943 1251.67 514.008 1150.59C452 1116.33 389.507 1141.51 332.049 1191.73C284.74 1243.94 252.582 1260.94 241.046 1236.53C247.028 1178.24 271.935 1094.65 309.347 1003.19C343.123 905.489 367.475 815.872 371.84 738.336C363.319 700.182 348.561 664.881 328.088 632.352C302.338 599.999 273.436 570.116 243.344 542.767C213.529 515.419 187.41 491.273 166.775 470.363C151.787 449.645 144.639 432.48 145.644 419.061C168.934 393.465 218.506 383.6 282.512 386.532C348.573 383.233 407.244 376.794 451.885 350.8C478.57 290.939 490.591 195.457 493.05 71.5753C482.866 -95.3222 484.586 -74.7151 508.593 43.3659C530.994 38.3615 560.428 -55.1279 594.723 -194.438C621.5 -274.842 678.451 -264.594 707.988 -176.253C727.803 -106.606 747.48 -45.7725 767.017 -5.02038C786.636 8.04837 806.278 -6.6938 826.046 -44.5772C866.461 -159.949 909.105 -246.091 955.362 -244.067C1005.05 -153.797 1060.23 -17.595 1120.57 102.08C1182.54 165.32 1245.69 164.634 1304.66 125.89C1371.6 54.9524 1388.69 117.38 1340.1 234.122C1305.14 326.926 1278.12 415.921 1270.1 494.668C1276.74 533.89 1289.72 570.228 1308.63 603.553C1333.18 636.783 1361.31 667.144 1391.13 694.492Z" stroke="url(#paint2_linear_324_804)" stroke-width="1.25" stroke-linecap="round" stroke-dasharray="0,0,0,6752.66064453125"><animate attributeType="XML" attributeName="stroke-dasharray" repeatCount="indefinite" dur="25s" values="0,0,0,6752.66064453125; 
          0,3376.330322265625,3376.330322265625,0; 
          6752.66064453125,0,0,0" keyTimes="0; 0.5; 1" fill="freeze"></animate></path>
<path opacity="0.75" d="M1309.14 481.759C1359.7 528.631 1396.31 573.941 1412.19 619.937C1407.87 669.359 1380.8 725.714 1336.62 793.512C1282.69 869.964 1224.91 959.948 1170.06 1058.43C1122.51 1150.31 1084.4 1228.1 1055.75 1273.42C1037.28 1279.51 1024.82 1242.89 1015.08 1176.46C1009.97 1118.33 1002.91 1092.31 991.851 1125.11C981.366 1217.66 965.247 1338.5 943.122 1435.84C920.825 1465.34 892.673 1409.07 858.724 1294.78C824.764 1192.83 786.601 1156.23 744.847 1196.95C702.931 1291.5 657.273 1379.74 608.903 1415.84C561.121 1385.78 512.242 1295.97 465.025 1181.19C422.417 1073.06 386.124 998.851 360.085 964.888C365.281 1014.12 453.282 993.703 448.363 929.268C419.38 880.419 375.882 830.87 325.328 783.998C275.56 737.125 241.046 695.146 228.09 655.605C235.63 612.606 265.561 565.415 311.761 508.231C366.713 440.242 424.403 356.745 478.212 259.51C523.939 162.021 559.85 70.6509 586.27 4.73342C602.517 -22.7269 613.117 -4.09597 621.466 55.1915C625.519 121.189 631.939 168.969 642.712 164.682C653.105 94.2384 669.306 -20.655 691.557 -133.301C714.039 -192.111 742.306 -165.049 776.266 -63.1125C810.227 51.1593 848.263 116.949 889.821 105.554C931.621 26.3128 977.198 -67.83 1025.65 -126.034C1073.73 -124.488 1123.23 -56.4347 1171.52 50.49C1215.52 165.718 1253.67 257.917 1281.94 313.252C1282.08 295.338 1191.66 292.836 1191.92 346.258C1217.98 388.652 1259.36 434.871 1309.13 481.743C1309.14 481.754 1309.14 481.759 1309.14 481.759Z" stroke="url(#paint3_linear_324_804)" stroke-width="1.25" stroke-linecap="round" stroke-dasharray="0,0,0,5802.76123046875"><animate attributeType="XML" attributeName="stroke-dasharray" repeatCount="indefinite" dur="25s" values="0,0,0,5802.76123046875; 
          0,2901.380615234375,2901.380615234375,0; 
          5802.76123046875,0,0,0" keyTimes="0; 0.5; 1" fill="freeze"></animate></path>
<path opacity="0.28" d="M1226.92 671.67C1269.47 710.733 1302.79 758.736 1322.53 813.816C1329.36 867.924 1319.47 926.622 1294.99 985.113C1260 1036.5 1216.62 1079.08 1169.43 1105.07C1121.51 1114.16 1075.68 1100.74 1034.09 1065.85C997.301 1025.94 965.581 985.24 938.249 960.92C915.363 971.805 894.705 1020.56 874.775 1104.23C856.923 1204.44 837.709 1294.97 816.081 1345.43C794.927 1340.73 770.389 1278.73 742.087 1181.38C713.785 1092.75 683.07 1044.85 650.853 1051.01C619.11 1107.59 586.836 1184.65 555.647 1251.13C526.537 1289.46 500.591 1281.14 479.864 1230.76C463.582 1150.3 454.668 1056.82 454.367 967.741C458.871 890.922 471.157 834.679 489.609 797.512C516.318 772.714 540.197 752.664 519.332 730.575C488.674 713.107 449.622 685.185 407.071 646.122C365.108 607.059 333.388 558.721 315.952 502.525C311.865 446.632 324.52 384.205 351.402 319.148C388.306 259.526 432.878 205.307 480.499 164.842C528.165 141.812 573.153 141.971 613.545 167.599C648.763 205.482 678.832 252.673 704.617 292.453C725.921 302.159 745.228 275.448 764.107 208.494C780.966 113.395 799.453 14.1047 820.63 -57.5344C841.346 -78.795 865.676 -38.7919 893.978 49.8206C922.28 147.167 953.203 217.069 985.858 236.863C1018.05 201.466 1051.04 133.174 1083.22 61.5984C1113.4 6.55028 1140.69 -7.15597 1163 22.6153C1180.83 87.5925 1191.4 174.627 1193.27 265.71C1189.97 351.788 1178.53 421.292 1160.32 472.419C1132.58 517.491 1102.41 560.044 1119.15 585.767C1147.49 604.35 1184.95 632.607 1226.92 671.67Z" stroke="url(#paint4_linear_324_804)" stroke-width="1.25" stroke-linecap="round" stroke-dasharray="0,0,0,5196.51904296875"><animate attributeType="XML" attributeName="stroke-dasharray" repeatCount="indefinite" dur="25s" values="0,0,0,5196.51904296875; 
          0,2598.259521484375,2598.259521484375,0; 
          5196.51904296875,0,0,0" keyTimes="0; 0.5; 1" fill="freeze"></animate></path>
<path opacity="0.09" d="M1145.16 773.064C1179.45 804.318 1207.91 830.583 1228.09 850.999C1242.32 875.845 1207.49 878.188 1165.28 855.684C1131.13 840.607 1094.37 825.052 1057.06 815.777C1019.59 822.534 983.48 846.249 949.6 890.683C917.118 954.178 886.934 1031.35 859.013 1111.29C832.224 1180.08 806.889 1224.88 782.768 1233.88C759.004 1207.38 735.794 1147.56 713.15 1068.43C680.021 969.382 624.087 964.155 603.718 1040C588.857 1117.98 583.684 1138.08 593.291 1075.83C600.924 1014.82 610.842 947.994 621.42 882.22C627.967 817.052 631.835 758.657 631.119 708.071C622.54 661.247 607.367 620.542 585.543 584.412C556.617 549.732 523.569 517.06 489.286 485.823C455.361 454.569 427.878 426.216 409.161 401.976C397.81 371.105 438.363 355.613 482.623 376.093C517.68 393.704 554.966 415.682 592.425 435.731C629.745 442.393 665.472 434.616 698.82 406.358C730.609 355.581 760.077 285.998 787.34 205.881C813.425 128.632 838.171 67.8618 861.877 38.3137C885.225 44.9118 908.215 89.6962 930.859 163.184C953.492 242.314 974.704 308.454 994.068 347.007C1013.05 350.083 1029.48 323.053 1042.64 277.169C1061.99 165.176 1043.2 256.1 1026.49 349.541C1018.7 415.283 1013.21 476.611 1012.02 531.181C1018.61 583.265 1031.76 628.814 1051.71 668.546C1079.16 707.067 1111.21 741.811 1145.15 773.048C1145.16 773.059 1145.16 773.064 1145.16 773.064Z" stroke="url(#paint5_linear_324_804)" stroke-width="1.25" stroke-linecap="round" stroke-dasharray="0,0,0,3885.220703125"><animate attributeType="XML" attributeName="stroke-dasharray" repeatCount="indefinite" dur="25s" values="0,0,0,3885.220703125; 
          0,1942.6103515625,1942.6103515625,0; 
          3885.220703125,0,0,0" keyTimes="0; 0.5; 1" fill="freeze"></animate></path>
<path opacity="0.53" d="M1063.18 523.595C1113.73 570.467 1146.11 599.824 1155.43 621.037C1147.88 654.123 1119.14 701.824 1077.75 778.993C1028.91 880.977 977.048 997.99 928.942 1089.41C880.491 1120.57 837.663 1069.57 803.702 955.278C742.48 887.91 723.161 980.634 702.18 899.257C667.966 829.085 621.824 764.474 571.271 717.618C521.502 670.746 491.168 646.042 484.494 634.998C495.013 613.578 526.306 583.536 569.515 525.507C619.711 435.221 672.215 318.543 720.517 210.439C768.957 151.837 811.693 174.404 845.642 276.34C906.691 399.362 921.01 295.896 937.741 356.745C969.3 416.766 1013.4 476.706 1063.17 523.579C1063.17 523.59 1063.18 523.595 1063.18 523.595Z" stroke="url(#paint6_linear_324_804)" stroke-width="1.25" stroke-linecap="round" stroke-dasharray="0,0,0,2372.727783203125"><animate attributeType="XML" attributeName="stroke-dasharray" repeatCount="indefinite" dur="25s" values="0,0,0,2372.727783203125; 
          0,1186.3638916015625,1186.3638916015625,0; 
          2372.727783203125,0,0,0" keyTimes="0; 0.5; 1" fill="freeze"></animate></path>
<path opacity="0.32" d="M981.031 568.523C1015.31 599.776 1040.81 644.544 1055.5 700.15C1064.33 756.649 1061.76 823.06 1050.03 890.428C1033.74 947.245 1011.62 987.727 987.255 996.986C961.609 976.522 936.182 921.124 913.539 841.994C890.895 768.506 873.193 714.972 859.602 689.711C844.729 695.146 831.531 717.427 818.136 742.305C800.204 773.431 778.761 791.377 753.334 792.03C722.053 790.325 687.377 773.24 653.093 741.986C619.168 710.733 594.676 668.291 581.374 615.857C574.284 561.032 578.638 494.333 591.951 422.264C609.792 356.41 633.151 300.996 658.313 272.659C684.721 275.018 710.552 315.881 733.196 389.369C755.828 468.499 773.137 536.568 785.966 579.934C806.023 589.911 850.029 535.133 883.551 523.961C913.435 522.511 947.106 537.269 981.031 568.523Z" stroke="url(#paint7_linear_324_804)" stroke-width="1.25" stroke-linecap="round" stroke-dasharray="0,0,0,2148.49169921875"><animate attributeType="XML" attributeName="stroke-dasharray" repeatCount="indefinite" dur="25s" values="0,0,0,2148.49169921875; 
          0,1074.245849609375,1074.245849609375,0; 
          2148.49169921875,0,0,0" keyTimes="0; 0.5; 1" fill="freeze"></animate></path>
</g>
</g>
<defs>
<linearGradient id="paint0_linear_324_804" x1="83785" y1="-525.63" x2="83785" y2="232719" gradientUnits="userSpaceOnUse">
<stop stop-color="#B1B1B1"></stop>
<stop offset="1" stop-color="#4A4A4A"></stop>
</linearGradient>
<linearGradient id="paint1_linear_324_804" x1="75694.2" y1="-418.822" x2="75694.2" y2="210600" gradientUnits="userSpaceOnUse">
<stop stop-color="#B1B1B1"></stop>
<stop offset="1" stop-color="#4A4A4A"></stop>
</linearGradient>
<linearGradient id="paint2_linear_324_804" x1="67683" y1="-249.073" x2="67683" y2="181899" gradientUnits="userSpaceOnUse">
<stop stop-color="#B1B1B1"></stop>
<stop offset="1" stop-color="#4A4A4A"></stop>
</linearGradient>
<linearGradient id="paint3_linear_324_804" x1="59433" y1="-163.965" x2="59433" y2="160593" gradientUnits="userSpaceOnUse">
<stop stop-color="#B1B1B1"></stop>
<stop offset="1" stop-color="#4A4A4A"></stop>
</linearGradient>
<linearGradient id="paint4_linear_324_804" x1="50787.2" y1="-63.136" x2="50787.2" y2="140793" gradientUnits="userSpaceOnUse">
<stop stop-color="#B1B1B1"></stop>
<stop offset="1" stop-color="#4A4A4A"></stop>
</linearGradient>
<linearGradient id="paint5_linear_324_804" x1="41612.1" y1="38.3137" x2="41612.1" y2="119595" gradientUnits="userSpaceOnUse">
<stop stop-color="#B1B1B1"></stop>
<stop offset="1" stop-color="#4A4A4A"></stop>
</linearGradient>
<linearGradient id="paint6_linear_324_804" x1="34031.2" y1="178.621" x2="34031.2" y2="92156.8" gradientUnits="userSpaceOnUse">
<stop stop-color="#B1B1B1"></stop>
<stop offset="1" stop-color="#4A4A4A"></stop>
</linearGradient>
<linearGradient id="paint7_linear_324_804" x1="24716.3" y1="272.659" x2="24716.3" y2="72705.4" gradientUnits="userSpaceOnUse">
<stop stop-color="#B1B1B1"></stop>
<stop offset="1" stop-color="#4A4A4A"></stop>
</linearGradient>
<clipPath id="clip0_324_804">
<rect width="1642" height="1275" fill="white" stroke-dasharray="0,0,0,5834"><animate attributeType="XML" attributeName="stroke-dasharray" repeatCount="indefinite" dur="25s" values="0,0,0,5834; 
          0,2917,2917,0; 
          5834,0,0,0" keyTimes="0; 0.5; 1" fill="freeze"></animate></rect>
</clipPath>
</defs>
<!-- <setting>{"type":"direct","speed":3,"random":1,"shift":1,"size":1,"rupture":50}</setting> --></svg>